<svg width="512" height="512" viewBox="0 0 512 512" fill="none" xmlns="http://www.w3.org/2000/svg">
  <defs>
    <linearGradient id="g1" x1="64" y1="64" x2="448" y2="448" gradientUnits="userSpaceOnUse">
      <stop stop-color="#F05D7A"/>
      <stop offset="0.5" stop-color="#36A2EB"/>
      <stop offset="1" stop-color="#84CC16"/>
    </linearGradient>
  </defs>
  <rect x="24" y="24" width="464" height="464" rx="96" fill="#F8FAFC"/>
  <path d="M254 98C190 77 123 120 110 186C98 253 153 314 225 316H278C298 316 314 300 314 280C314 264 301 252 285 252H270C255 252 244 241 244 226C244 211 255 200 270 200H301C343 200 377 166 377 124C377 103 360 86 339 86C312 86 291 101 282 122C276 135 265 141 251 137C240 134 231 125 229 114C227 106 238 101 254 98Z" fill="#F2C57C"/>
  <circle cx="162" cy="212" r="20" fill="#F59E0B"/>
  <circle cx="220" cy="252" r="20" fill="#EF4444"/>
  <circle cx="282" cy="260" r="20" fill="#0284C7"/>
  <circle cx="336" cy="236" r="20" fill="#84CC16"/>
  <g transform="translate(106 290) rotate(-24)">
    <rect x="0" y="-8" width="210" height="16" rx="8" fill="#E5E7EB"/>
    <rect x="18" y="-8" width="150" height="16" rx="8" fill="#F8D7A4"/>
    <polygon points="168,-8 210,0 168,8" fill="#9CA3AF"/>
    <polygon points="210,0 226,-4 226,4" fill="#DC2626"/>
    <rect x="8" y="-8" width="10" height="16" fill="#9CA3AF"/>
  </g>
  <text x="94" y="436" font-size="88" font-family="'Segoe Script', 'Brush Script MT', cursive" fill="url(#g1)">A</text>
</svg>
