<svg width="1200" height="360" viewBox="0 0 1200 360" fill="none" xmlns="http://www.w3.org/2000/svg">
  <defs>
    <linearGradient id="bg" x1="0" y1="0" x2="1200" y2="360" gradientUnits="userSpaceOnUse">
      <stop stop-color="#F8FAFC"/>
      <stop offset="1" stop-color="#EEF2FF"/>
    </linearGradient>
    <linearGradient id="brand" x1="290" y1="90" x2="900" y2="240" gradientUnits="userSpaceOnUse">
      <stop stop-color="#F05D7A"/>
      <stop offset="0.33" stop-color="#1F2937"/>
      <stop offset="0.66" stop-color="#36A2EB"/>
      <stop offset="1" stop-color="#84CC16"/>
    </linearGradient>
    <filter id="softShadow" x="0" y="0" width="1200" height="360" filterUnits="userSpaceOnUse" color-interpolation-filters="sRGB">
      <feDropShadow dx="0" dy="6" stdDeviation="8" flood-color="#0F172A" flood-opacity="0.18"/>
    </filter>
  </defs>

  <rect width="1200" height="360" rx="28" fill="url(#bg)"/>

  <!-- Palette mark -->
  <g transform="translate(56 72)" filter="url(#softShadow)">
    <path d="M155 16C88 -6 19 38 6 108C-7 180 54 246 129 248H184C205 248 222 231 222 210C222 193 210 180 193 180H177C161 180 149 168 149 152C149 136 161 124 177 124H209C252 124 287 89 287 46C287 24 269 6 247 6C219 6 198 22 188 44C182 58 170 64 155 60C143 57 134 47 132 35C130 25 139 20 155 16Z" fill="#F2C57C"/>
    <circle cx="56" cy="132" r="16" fill="#F59E0B"/>
    <circle cx="112" cy="168" r="16" fill="#EF4444"/>
    <circle cx="168" cy="176" r="16" fill="#0284C7"/>
    <circle cx="218" cy="156" r="16" fill="#84CC16"/>
    <circle cx="236" cy="104" r="16" fill="#059669"/>

    <!-- Pencil -->
    <g transform="translate(16 170) rotate(-27)">
      <rect x="0" y="-6" width="184" height="12" rx="6" fill="#E5E7EB"/>
      <rect x="18" y="-6" width="130" height="12" rx="6" fill="#F8D7A4"/>
      <polygon points="148,-6 184,0 148,6" fill="#9CA3AF"/>
      <polygon points="184,0 198,-3 198,3" fill="#DC2626"/>
      <rect x="8" y="-6" width="10" height="12" fill="#9CA3AF"/>
    </g>
  </g>

  <!-- Brand line -->
  <line x1="290" y1="92" x2="1090" y2="92" stroke="#E8A6B6" stroke-width="5" stroke-linecap="round"/>

  <!-- Wordmark -->
  <text x="292" y="198" font-size="116" font-family="'Segoe Script', 'Brush Script MT', cursive" font-weight="600" fill="url(#brand)">Adwart</text>

  <!-- Tagline -->
  <text x="302" y="252" font-size="56" letter-spacing="5" font-family="'Trebuchet MS', 'Segoe UI', sans-serif" fill="#0F172A">listen to your Art</text>

  <!-- Pencil outline icon right -->
  <g transform="translate(1070 112)">
    <path d="M18 0H54L68 18V186H4V18L18 0Z" stroke="#E8A6B6" stroke-width="5" fill="none"/>
    <path d="M18 0L36 22L54 0" stroke="#E8A6B6" stroke-width="5" fill="none"/>
    <path d="M18 122H54" stroke="#E8A6B6" stroke-width="5"/>
    <path d="M18 150H54" stroke="#E8A6B6" stroke-width="5"/>
    <path d="M22 36V108M36 36V108M50 36V108" stroke="#E8A6B6" stroke-width="5"/>
  </g>
</svg>
